<svg width="17" height="22" viewBox="0 0 17 22" fill="none" xmlns="http://www.w3.org/2000/svg">
<path d="M1.20817 0.583252H15.7915C16.0678 0.583252 16.3327 0.692999 16.5281 0.888349C16.7234 1.0837 16.8332 1.34865 16.8332 1.62492V20.3749C16.8332 20.6512 16.7234 20.9161 16.5281 21.1115C16.3327 21.3068 16.0678 21.4166 15.7915 21.4166H1.20817C0.931903 21.4166 0.666952 21.3068 0.471601 21.1115C0.276251 20.9161 0.166504 20.6512 0.166504 20.3749V1.62492C0.166504 1.34865 0.276251 1.0837 0.471601 0.888349C0.666952 0.692999 0.931903 0.583252 1.20817 0.583252ZM5.37484 9.95825V6.83325L0.166504 10.9999L5.37484 15.1666V12.0416H11.6248V9.95825H5.37484Z" fill="#4461F2"/>
</svg>
